<svg width="512" height="512" xmlns="http://www.w3.org/2000/svg" xmlns:xlink="http://www.w3.org/1999/xlink" aria-label="Jellyfin" role="img">
 <defs>
  <path d="m190.56,329.07c8.63,17.3 122.4,17.12 130.93,0c8.52,-17.1 -47.9,-119.78 -65.46,-119.8c-17.57,0 -74.1,102.5 -65.47,119.8z" id="A"/>
  <path d="m58.75,417.03c25.97,52.15 368.86,51.55 394.55,0s-144.37,-360.95 -197.27,-360.95c-52.92,0 -223.25,308.8 -197.28,360.95zm68.04,-45.25c-17.02,-34.17 94.6,-236.5 129.26,-236.5c34.67,0 146.1,202.7 129.26,236.5c-16.83,33.8 -241.5,34.17 -258.52,0z" id="C"/>
  <linearGradient id="B" x1="-0.47871" y1="0.07573" x2="2.01982" y2="1.51807">
   <stop offset="0%" stop-color="#aa5cc3"/>
   <stop offset="100%" stop-color="#00a4dc"/>
  </linearGradient>
 </defs>
 <g>
  <title>Layer 1</title>
  <use xlink:href="#A" fill="url(#B)" id="svg_2"/>
  <use xlink:href="#A" fill-opacity="0" stroke="#000" stroke-opacity="0" id="svg_3"/>
  <use xlink:href="#C" fill="url(#B)" id="svg_4"/>
  <use xlink:href="#C" fill-opacity="0" stroke="#000" stroke-opacity="0" id="svg_5"/>
  <path d="m72,48c1,0 1.82375,0.48626 4,1c0.97325,0.22975 2.29289,0.29289 3,1c0.70711,0.70711 1,2 1,3c0,1 0,2 0,3c0,1 0,3 0,5c0,2 0,3 0,5c0,1 0,2 0,3c0,1 0.38268,2.07612 0,3c-0.5412,1.30656 -1,2 -1,3c0,1 -1,2 -1,3c0,1 -1,1 -1,2c0,1 -1.77025,3.02675 -2,4c-0.51374,2.17625 -1.61732,4.07612 -2,5c-0.5412,1.30656 -2.4588,1.69344 -3,3c-0.76537,1.84776 -1,4 -2,5c-1,1 -1,3 -2,5c-1,2 -1.69255,4.186 -3,6c-0.8269,1.14727 -1.23463,3.15224 -2,5c-1.08239,2.61313 -2.2565,3.797 -3,5c-1.66251,2.68999 -1.91761,3.38687 -3,6c-0.38268,0.92388 -0.61732,2.07612 -1,3c-0.54119,1.30656 -1,2 -2,3c-1,1 -1.45881,1.69344 -2,3c-0.38268,0.92387 -0.45881,1.69344 -1,3c-0.38268,0.92387 -1,2 -1,3l-1,1l0,1l0,1" id="svg_6" fill="none"/>
 </g>
</svg>