<svg width="512" height="512" xmlns="http://www.w3.org/2000/svg" role="img" aria-label="Teamspeak">

 <g>
  <title>Layer 1</title>
  <path id="svg_2" d="m407,336c5,5 9,18 9,26s0,15 -2,21c0,3 -6,33 -43,51l-23,8l-14,3c-64,12 -148,-3 -84,-10l17,-2a1532,1532 0 0 0 42,-10l1,0a19086,19086 0 0 0 12,-4c16,-7 33,-16 47,-29c10,-10 19,-22 26,-37l6,-15c0,-2 4,-3 6,-2zm-60,-56c17,-3 28,5 29,19c1,13 -3,25 -13,35c-8,9 -18,13 -32,12a249,249 0 0 1 -40,-5c-19,-5 -26,-19 -14,-30c7,-7 16,-12 25,-16l23,-9c7,-3 15,-5 22,-6zm-211,-15c3,-18 18,-26 34,-18a1135,1135 0 0 1 42,28a141,141 0 0 1 33,39l1,10c-2,10 -9,15 -18,19l-13,1l-19,0l-16,-2c-15,-1 -26,-7 -34,-19a77,77 0 0 1 -10,-58zm256,-153l3,2c4,4 8,9 3,16l-1,1l0,2l2,2c16,22 27,46 32,73l2,4l2,1c14,7 21,18 21,33l0,19l-1,21c-4,20 -23,33 -42,29c-6,-1 -7,-6 -7,-11a11534,11534 0 0 1 0,-66a150,150 0 0 0 -300,-1l0,69c0,6 -4,9 -10,9c-24,1 -40,-14 -40,-38l0,-27l1,-10c2,-12 8,-21 19,-27l1,0l1,-1c2,-1 3,-3 3,-5c5,-26 15,-50 30,-71l2,-3l0,-5c-3,-4 -1,-7 1,-11l1,0c22,-25 48,-43 80,-53c75,-23 141,-7 197,48z" fill="#2580c3"/>
 </g>
</svg>